<svg width="161" height="28" viewBox="0 0 161 28" fill="none" xmlns="http://www.w3.org/2000/svg">
<path d="M0 20L16 24L32 20V24L16 28L0 24V20Z" fill="#1674BB"/>
<path d="M0 12L16 16L32 12V16L16 20L0 16V12Z" fill="#1674BB"/>
<path d="M0 4L16 0L32 4V8L16 12L0 8V4Z" fill="#1674BB"/>
<path d="M49.904 25.328C47.696 25.328 46 24.016 46 21.072V2.672H50.32V20.624C50.32 21.36 50.704 21.552 51.344 21.552C51.664 21.552 52.048 21.488 52.464 21.392V24.816C51.536 25.168 50.64 25.328 49.904 25.328Z" fill="#22222F"/>
<path d="M61.6582 25.328C56.6662 25.328 53.6582 21.456 53.6582 17.072C53.6582 12.656 56.6342 8.848 61.6582 8.848C66.6502 8.848 69.6582 12.656 69.6582 17.072C69.6582 21.456 66.6182 25.328 61.6582 25.328ZM61.6582 21.52C64.4102 21.52 65.3382 19.344 65.3382 17.072C65.3382 14.768 64.4422 12.624 61.6582 12.624C58.9062 12.624 57.9782 14.768 57.9782 17.072C57.9782 19.312 58.8742 21.52 61.6582 21.52Z" fill="#22222F"/>
<path d="M80.765 8.848C81.821 8.848 82.781 9.136 83.837 9.808L81.757 13.68C81.277 13.36 80.541 13.136 79.773 13.136C77.757 13.136 76.637 14.448 76.637 17.328V24.976H72.285V9.2H76.669V11.696C77.373 9.904 79.037 8.848 80.765 8.848Z" fill="#22222F"/>
<path d="M98.2623 17.04C98.2623 17.52 98.2303 17.968 98.1663 18.544H87.5742C87.7663 20.208 88.8862 21.392 91.1582 21.392C92.4702 21.392 93.7182 20.944 94.7103 19.76L97.7182 22.416C96.0222 24.304 93.8463 25.328 91.1263 25.328C85.4942 25.328 83.2542 21.296 83.2542 17.168C83.2542 13.136 85.4303 8.848 90.8703 8.848C95.7983 8.848 98.2623 12.432 98.2623 17.04ZM87.5423 15.248H94.1342C94.0702 13.52 92.6302 12.464 90.8382 12.464C88.6302 12.464 87.7343 13.968 87.5423 15.248Z" fill="#22222F"/>
<path d="M119.021 8.848C122.828 8.848 124.557 11.856 124.557 14.864V24.976H120.237V16.176C120.237 14.96 120.012 12.624 117.772 12.624C114.54 12.624 114.956 16.336 114.956 19.408V24.976H110.636V16.144C110.636 15.312 110.668 12.624 108.236 12.624C104.972 12.624 105.356 16.336 105.356 19.408V24.976H101.005L100.973 9.2H105.165V11.184C106.221 9.392 107.853 8.848 109.356 8.848C110.988 8.848 112.941 9.488 113.933 11.984C115.244 9.488 117.101 8.848 119.021 8.848Z" fill="#22222F"/>
<path d="M128.959 24.976V20.624H133.151V24.976H128.959Z" fill="#22222F"/>
<path d="M137.877 6.608V2.672H142.357V6.608H137.877ZM137.941 24.976V9.2H142.293V24.976H137.941Z" fill="#22222F"/>
<path d="M152.908 25.328C147.916 25.328 144.908 21.456 144.908 17.072C144.908 12.656 147.884 8.848 152.908 8.848C157.9 8.848 160.908 12.656 160.908 17.072C160.908 21.456 157.868 25.328 152.908 25.328ZM152.908 21.52C155.66 21.52 156.588 19.344 156.588 17.072C156.588 14.768 155.692 12.624 152.908 12.624C150.156 12.624 149.228 14.768 149.228 17.072C149.228 19.312 150.124 21.52 152.908 21.52Z" fill="#22222F"/>
</svg>
